<mxfile host="Electron" modified="2023-09-26T10:43:33.426Z" agent="Mozilla/5.0 (Macintosh; Intel Mac OS X 10_15_7) AppleWebKit/537.36 (KHTML, like Gecko) draw.io/21.6.8 Chrome/114.0.5735.289 Electron/25.5.0 Safari/537.36" etag="agBTmdFyQNz5RYerde4O" version="21.6.8" type="device" pages="2">
  <diagram name="dipendenza due" id="7FKTzWVa2iaxRYZOdvMb">
    <mxGraphModel dx="1026" dy="688" grid="1" gridSize="10" guides="1" tooltips="1" connect="1" arrows="1" fold="1" page="1" pageScale="1" pageWidth="1169" pageHeight="1654" math="0" shadow="0">
      <root>
        <mxCell id="0" />
        <mxCell id="1" parent="0" />
        <mxCell id="7dnUwh2d5hzcVz435uzP-12" value="" style="edgeStyle=orthogonalEdgeStyle;rounded=0;orthogonalLoop=1;jettySize=auto;html=1;strokeColor=#009900;strokeWidth=1;labelPosition=center;verticalLabelPosition=middle;align=center;verticalAlign=middle;fontSize=14;" parent="1" source="7dnUwh2d5hzcVz435uzP-1" target="7dnUwh2d5hzcVz435uzP-11" edge="1">
          <mxGeometry relative="1" as="geometry" />
        </mxCell>
        <mxCell id="7dnUwh2d5hzcVz435uzP-1" value="P0" style="ellipse;whiteSpace=wrap;html=1;aspect=fixed;labelPosition=center;verticalLabelPosition=middle;align=center;verticalAlign=middle;strokeColor=#009900;strokeWidth=2;fontSize=14;" parent="1" vertex="1">
          <mxGeometry x="100" y="280" width="40" height="40" as="geometry" />
        </mxCell>
        <mxCell id="7dnUwh2d5hzcVz435uzP-2" value="P7" style="ellipse;whiteSpace=wrap;html=1;aspect=fixed;labelPosition=center;verticalLabelPosition=middle;align=center;verticalAlign=middle;strokeColor=#009900;strokeWidth=2;fontSize=14;" parent="1" vertex="1">
          <mxGeometry x="660" y="210" width="40" height="40" as="geometry" />
        </mxCell>
        <mxCell id="7dnUwh2d5hzcVz435uzP-4" value="P6" style="ellipse;whiteSpace=wrap;html=1;aspect=fixed;labelPosition=center;verticalLabelPosition=middle;align=center;verticalAlign=middle;strokeColor=#009900;strokeWidth=2;fontSize=14;" parent="1" vertex="1">
          <mxGeometry x="660" y="350" width="40" height="40" as="geometry" />
        </mxCell>
        <mxCell id="7dnUwh2d5hzcVz435uzP-5" value="P8" style="ellipse;whiteSpace=wrap;html=1;aspect=fixed;labelPosition=center;verticalLabelPosition=middle;align=center;verticalAlign=middle;strokeColor=#009900;strokeWidth=2;fontSize=14;" parent="1" vertex="1">
          <mxGeometry x="790" y="280" width="40" height="40" as="geometry" />
        </mxCell>
        <mxCell id="7dnUwh2d5hzcVz435uzP-21" style="edgeStyle=orthogonalEdgeStyle;rounded=0;orthogonalLoop=1;jettySize=auto;html=1;strokeColor=#009900;strokeWidth=1;labelPosition=center;verticalLabelPosition=middle;align=center;verticalAlign=middle;fontSize=14;" parent="1" source="7dnUwh2d5hzcVz435uzP-6" target="7dnUwh2d5hzcVz435uzP-15" edge="1">
          <mxGeometry relative="1" as="geometry" />
        </mxCell>
        <mxCell id="7dnUwh2d5hzcVz435uzP-6" value="P2" style="ellipse;whiteSpace=wrap;html=1;aspect=fixed;labelPosition=center;verticalLabelPosition=middle;align=center;verticalAlign=middle;strokeColor=#009900;strokeWidth=2;fontSize=14;" parent="1" vertex="1">
          <mxGeometry x="240" y="350" width="40" height="40" as="geometry" />
        </mxCell>
        <mxCell id="7dnUwh2d5hzcVz435uzP-14" value="" style="edgeStyle=orthogonalEdgeStyle;rounded=0;orthogonalLoop=1;jettySize=auto;html=1;strokeColor=#009900;strokeWidth=1;labelPosition=center;verticalLabelPosition=middle;align=center;verticalAlign=middle;fontSize=14;" parent="1" source="7dnUwh2d5hzcVz435uzP-7" target="7dnUwh2d5hzcVz435uzP-13" edge="1">
          <mxGeometry relative="1" as="geometry" />
        </mxCell>
        <mxCell id="7dnUwh2d5hzcVz435uzP-7" value="P1" style="ellipse;whiteSpace=wrap;html=1;aspect=fixed;labelPosition=center;verticalLabelPosition=middle;align=center;verticalAlign=middle;strokeColor=#009900;strokeWidth=2;fontSize=14;" parent="1" vertex="1">
          <mxGeometry x="240" y="210" width="40" height="40" as="geometry" />
        </mxCell>
        <mxCell id="7dnUwh2d5hzcVz435uzP-25" style="edgeStyle=orthogonalEdgeStyle;rounded=0;orthogonalLoop=1;jettySize=auto;html=1;strokeColor=#009900;strokeWidth=1;labelPosition=center;verticalLabelPosition=middle;align=center;verticalAlign=middle;fontSize=14;" parent="1" source="7dnUwh2d5hzcVz435uzP-8" target="7dnUwh2d5hzcVz435uzP-16" edge="1">
          <mxGeometry relative="1" as="geometry" />
        </mxCell>
        <mxCell id="7dnUwh2d5hzcVz435uzP-8" value="P3" style="ellipse;whiteSpace=wrap;html=1;aspect=fixed;labelPosition=center;verticalLabelPosition=middle;align=center;verticalAlign=middle;strokeColor=#009900;strokeWidth=2;fontSize=14;" parent="1" vertex="1">
          <mxGeometry x="460" y="210" width="40" height="40" as="geometry" />
        </mxCell>
        <mxCell id="7dnUwh2d5hzcVz435uzP-9" value="P4" style="ellipse;whiteSpace=wrap;html=1;aspect=fixed;labelPosition=center;verticalLabelPosition=middle;align=center;verticalAlign=middle;strokeColor=#009900;strokeWidth=2;fontSize=14;" parent="1" vertex="1">
          <mxGeometry x="390" y="280" width="40" height="40" as="geometry" />
        </mxCell>
        <mxCell id="7dnUwh2d5hzcVz435uzP-10" value="P5" style="ellipse;whiteSpace=wrap;html=1;aspect=fixed;labelPosition=center;verticalLabelPosition=middle;align=center;verticalAlign=middle;strokeColor=#009900;strokeWidth=2;fontSize=14;" parent="1" vertex="1">
          <mxGeometry x="520" y="280" width="40" height="40" as="geometry" />
        </mxCell>
        <mxCell id="7dnUwh2d5hzcVz435uzP-11" value="&lt;b style=&quot;font-size: 14px;&quot;&gt;PAFH&lt;/b&gt;" style="html=1;aspect=fixed;labelPosition=center;verticalLabelPosition=middle;align=center;verticalAlign=middle;strokeColor=#009900;strokeWidth=2;fontSize=14;" parent="1" vertex="1">
          <mxGeometry x="180" y="280" width="40" height="40" as="geometry" />
        </mxCell>
        <mxCell id="7dnUwh2d5hzcVz435uzP-24" value="" style="edgeStyle=orthogonalEdgeStyle;rounded=0;orthogonalLoop=1;jettySize=auto;html=1;strokeColor=#009900;strokeWidth=1;labelPosition=center;verticalLabelPosition=middle;align=center;verticalAlign=middle;fontSize=14;" parent="1" source="7dnUwh2d5hzcVz435uzP-13" target="7dnUwh2d5hzcVz435uzP-8" edge="1">
          <mxGeometry relative="1" as="geometry" />
        </mxCell>
        <mxCell id="7dnUwh2d5hzcVz435uzP-13" value="&lt;b style=&quot;font-size: 14px;&quot;&gt;PIA&lt;/b&gt;" style="whiteSpace=wrap;html=1;aspect=fixed;labelPosition=center;verticalLabelPosition=middle;align=center;verticalAlign=middle;strokeColor=#009900;strokeWidth=2;fontSize=14;" parent="1" vertex="1">
          <mxGeometry x="320" y="210" width="40" height="40" as="geometry" />
        </mxCell>
        <mxCell id="7dnUwh2d5hzcVz435uzP-22" style="edgeStyle=orthogonalEdgeStyle;rounded=0;orthogonalLoop=1;jettySize=auto;html=1;entryX=0;entryY=0.5;entryDx=0;entryDy=0;strokeColor=#009900;strokeWidth=1;labelPosition=center;verticalLabelPosition=middle;align=center;verticalAlign=middle;fontSize=14;" parent="1" source="7dnUwh2d5hzcVz435uzP-15" target="7dnUwh2d5hzcVz435uzP-4" edge="1">
          <mxGeometry relative="1" as="geometry" />
        </mxCell>
        <mxCell id="7dnUwh2d5hzcVz435uzP-15" value="&lt;b style=&quot;font-size: 14px;&quot;&gt;PT&lt;/b&gt;" style="whiteSpace=wrap;html=1;aspect=fixed;labelPosition=center;verticalLabelPosition=middle;align=center;verticalAlign=middle;strokeColor=#009900;strokeWidth=2;fontSize=14;" parent="1" vertex="1">
          <mxGeometry x="460" y="350" width="40" height="40" as="geometry" />
        </mxCell>
        <mxCell id="7dnUwh2d5hzcVz435uzP-26" value="" style="edgeStyle=orthogonalEdgeStyle;rounded=0;orthogonalLoop=1;jettySize=auto;html=1;strokeColor=#009900;strokeWidth=1;labelPosition=center;verticalLabelPosition=middle;align=center;verticalAlign=middle;fontSize=14;" parent="1" source="7dnUwh2d5hzcVz435uzP-16" target="7dnUwh2d5hzcVz435uzP-2" edge="1">
          <mxGeometry relative="1" as="geometry" />
        </mxCell>
        <mxCell id="7dnUwh2d5hzcVz435uzP-16" value="&lt;b style=&quot;font-size: 14px;&quot;&gt;VRT&lt;/b&gt;" style="html=1;aspect=fixed;labelPosition=center;verticalLabelPosition=middle;align=center;verticalAlign=middle;strokeColor=#009900;strokeWidth=2;fontSize=14;" parent="1" vertex="1">
          <mxGeometry x="585" y="210" width="40" height="40" as="geometry" />
        </mxCell>
        <mxCell id="7dnUwh2d5hzcVz435uzP-28" style="edgeStyle=orthogonalEdgeStyle;rounded=0;orthogonalLoop=1;jettySize=auto;html=1;entryX=0;entryY=0.5;entryDx=0;entryDy=0;strokeColor=#009900;strokeWidth=1;labelPosition=center;verticalLabelPosition=middle;align=center;verticalAlign=middle;fontSize=14;" parent="1" source="7dnUwh2d5hzcVz435uzP-18" target="7dnUwh2d5hzcVz435uzP-5" edge="1">
          <mxGeometry relative="1" as="geometry">
            <mxPoint x="910" y="220" as="targetPoint" />
          </mxGeometry>
        </mxCell>
        <mxCell id="7dnUwh2d5hzcVz435uzP-18" value="&lt;b style=&quot;font-size: 14px;&quot;&gt;TPB&lt;/b&gt;" style="html=1;aspect=fixed;labelPosition=center;verticalLabelPosition=middle;align=center;verticalAlign=middle;strokeColor=#009900;strokeWidth=2;fontSize=14;" parent="1" vertex="1">
          <mxGeometry x="720" y="280" width="40" height="40" as="geometry" />
        </mxCell>
        <mxCell id="7dnUwh2d5hzcVz435uzP-19" value="" style="endArrow=classic;html=1;rounded=0;exitX=1;exitY=1;exitDx=0;exitDy=0;strokeColor=#009900;strokeWidth=1;labelPosition=center;verticalLabelPosition=middle;align=center;verticalAlign=middle;fontSize=14;" parent="1" source="7dnUwh2d5hzcVz435uzP-11" target="7dnUwh2d5hzcVz435uzP-6" edge="1">
          <mxGeometry width="50" height="50" relative="1" as="geometry">
            <mxPoint x="290" y="340" as="sourcePoint" />
            <mxPoint x="340" y="290" as="targetPoint" />
          </mxGeometry>
        </mxCell>
        <mxCell id="7dnUwh2d5hzcVz435uzP-20" value="" style="endArrow=classic;html=1;rounded=0;exitX=1;exitY=0;exitDx=0;exitDy=0;entryX=0;entryY=1;entryDx=0;entryDy=0;strokeColor=#009900;strokeWidth=1;labelPosition=center;verticalLabelPosition=middle;align=center;verticalAlign=middle;fontSize=14;" parent="1" source="7dnUwh2d5hzcVz435uzP-11" target="7dnUwh2d5hzcVz435uzP-7" edge="1">
          <mxGeometry width="50" height="50" relative="1" as="geometry">
            <mxPoint x="330" y="360" as="sourcePoint" />
            <mxPoint x="376" y="406" as="targetPoint" />
          </mxGeometry>
        </mxCell>
        <mxCell id="7dnUwh2d5hzcVz435uzP-23" value="" style="endArrow=classic;html=1;rounded=0;exitX=1;exitY=0;exitDx=0;exitDy=0;entryX=0;entryY=1;entryDx=0;entryDy=0;strokeColor=#009900;strokeWidth=1;labelPosition=center;verticalLabelPosition=middle;align=center;verticalAlign=middle;fontSize=14;" parent="1" source="7dnUwh2d5hzcVz435uzP-4" target="7dnUwh2d5hzcVz435uzP-18" edge="1">
          <mxGeometry width="50" height="50" relative="1" as="geometry">
            <mxPoint x="800" y="360" as="sourcePoint" />
            <mxPoint x="850" y="310" as="targetPoint" />
          </mxGeometry>
        </mxCell>
        <mxCell id="7dnUwh2d5hzcVz435uzP-29" value="" style="endArrow=classic;html=1;rounded=0;exitX=1;exitY=1;exitDx=0;exitDy=0;entryX=0;entryY=0;entryDx=0;entryDy=0;strokeColor=#009900;strokeWidth=1;labelPosition=center;verticalLabelPosition=middle;align=center;verticalAlign=middle;fontSize=14;" parent="1" source="7dnUwh2d5hzcVz435uzP-13" target="7dnUwh2d5hzcVz435uzP-9" edge="1">
          <mxGeometry width="50" height="50" relative="1" as="geometry">
            <mxPoint x="400" y="270" as="sourcePoint" />
            <mxPoint x="450" y="220" as="targetPoint" />
          </mxGeometry>
        </mxCell>
        <mxCell id="7dnUwh2d5hzcVz435uzP-30" value="" style="endArrow=classic;html=1;rounded=0;entryX=0;entryY=0;entryDx=0;entryDy=0;exitX=1;exitY=1;exitDx=0;exitDy=0;strokeColor=#009900;strokeWidth=1;labelPosition=center;verticalLabelPosition=middle;align=center;verticalAlign=middle;fontSize=14;" parent="1" source="7dnUwh2d5hzcVz435uzP-9" target="7dnUwh2d5hzcVz435uzP-15" edge="1">
          <mxGeometry width="50" height="50" relative="1" as="geometry">
            <mxPoint x="480" y="290" as="sourcePoint" />
            <mxPoint x="530" y="240" as="targetPoint" />
          </mxGeometry>
        </mxCell>
        <mxCell id="7dnUwh2d5hzcVz435uzP-31" value="" style="endArrow=classic;html=1;rounded=0;exitX=1;exitY=0;exitDx=0;exitDy=0;entryX=0;entryY=1;entryDx=0;entryDy=0;strokeColor=#009900;strokeWidth=1;labelPosition=center;verticalLabelPosition=middle;align=center;verticalAlign=middle;fontSize=14;" parent="1" source="7dnUwh2d5hzcVz435uzP-15" target="7dnUwh2d5hzcVz435uzP-10" edge="1">
          <mxGeometry width="50" height="50" relative="1" as="geometry">
            <mxPoint x="570" y="350" as="sourcePoint" />
            <mxPoint x="620" y="300" as="targetPoint" />
          </mxGeometry>
        </mxCell>
        <mxCell id="7dnUwh2d5hzcVz435uzP-32" value="" style="endArrow=classic;html=1;rounded=0;exitX=1;exitY=0;exitDx=0;exitDy=0;entryX=0;entryY=1;entryDx=0;entryDy=0;strokeColor=#009900;strokeWidth=2;labelPosition=center;verticalLabelPosition=middle;align=center;verticalAlign=middle;fontSize=14;" parent="1" source="7dnUwh2d5hzcVz435uzP-10" target="7dnUwh2d5hzcVz435uzP-16" edge="1">
          <mxGeometry width="50" height="50" relative="1" as="geometry">
            <mxPoint x="670" y="290" as="sourcePoint" />
            <mxPoint x="720" y="240" as="targetPoint" />
          </mxGeometry>
        </mxCell>
        <mxCell id="bKEpq_kX9lhDxRxHHbMR-1" value="" style="endArrow=classic;html=1;rounded=0;exitX=1;exitY=1;exitDx=0;exitDy=0;entryX=0;entryY=0;entryDx=0;entryDy=0;strokeColor=#009900;strokeWidth=1;labelPosition=center;verticalLabelPosition=middle;align=center;verticalAlign=middle;fontSize=14;" parent="1" source="7dnUwh2d5hzcVz435uzP-2" target="7dnUwh2d5hzcVz435uzP-18" edge="1">
          <mxGeometry width="50" height="50" relative="1" as="geometry">
            <mxPoint x="730" y="226" as="sourcePoint" />
            <mxPoint x="766" y="190" as="targetPoint" />
          </mxGeometry>
        </mxCell>
      </root>
    </mxGraphModel>
  </diagram>
  <diagram id="UQbhUmVbZ5eMfEkSYgPS" name="dipendenza uno">
    <mxGraphModel dx="1026" dy="688" grid="1" gridSize="10" guides="1" tooltips="1" connect="1" arrows="1" fold="1" page="1" pageScale="1" pageWidth="1169" pageHeight="1654" math="0" shadow="0">
      <root>
        <mxCell id="0" />
        <mxCell id="1" parent="0" />
        <mxCell id="Hx16BjxcyZ5YLSAibm-R-1" value="" style="edgeStyle=orthogonalEdgeStyle;rounded=0;orthogonalLoop=1;jettySize=auto;html=1;strokeColor=#009900;strokeWidth=1;labelPosition=center;verticalLabelPosition=middle;align=center;verticalAlign=middle;fontSize=14;" edge="1" parent="1" source="Hx16BjxcyZ5YLSAibm-R-2" target="Hx16BjxcyZ5YLSAibm-R-14">
          <mxGeometry relative="1" as="geometry" />
        </mxCell>
        <mxCell id="Hx16BjxcyZ5YLSAibm-R-2" value="P0" style="ellipse;whiteSpace=wrap;html=1;aspect=fixed;labelPosition=center;verticalLabelPosition=middle;align=center;verticalAlign=middle;strokeColor=#009900;strokeWidth=2;fontSize=14;" vertex="1" parent="1">
          <mxGeometry x="100" y="280" width="40" height="40" as="geometry" />
        </mxCell>
        <mxCell id="Hx16BjxcyZ5YLSAibm-R-3" value="P4" style="ellipse;whiteSpace=wrap;html=1;aspect=fixed;labelPosition=center;verticalLabelPosition=middle;align=center;verticalAlign=middle;strokeColor=#009900;strokeWidth=2;fontSize=14;" vertex="1" parent="1">
          <mxGeometry x="585" y="280" width="40" height="40" as="geometry" />
        </mxCell>
        <mxCell id="Hx16BjxcyZ5YLSAibm-R-5" value="P5" style="ellipse;whiteSpace=wrap;html=1;aspect=fixed;labelPosition=center;verticalLabelPosition=middle;align=center;verticalAlign=middle;strokeColor=#009900;strokeWidth=2;fontSize=14;" vertex="1" parent="1">
          <mxGeometry x="710" y="280" width="40" height="40" as="geometry" />
        </mxCell>
        <mxCell id="Hx16BjxcyZ5YLSAibm-R-8" value="" style="edgeStyle=orthogonalEdgeStyle;rounded=0;orthogonalLoop=1;jettySize=auto;html=1;strokeColor=#009900;strokeWidth=1;labelPosition=center;verticalLabelPosition=middle;align=center;verticalAlign=middle;fontSize=14;" edge="1" parent="1" source="Hx16BjxcyZ5YLSAibm-R-9" target="Hx16BjxcyZ5YLSAibm-R-16">
          <mxGeometry relative="1" as="geometry" />
        </mxCell>
        <mxCell id="Hx16BjxcyZ5YLSAibm-R-9" value="P1" style="ellipse;whiteSpace=wrap;html=1;aspect=fixed;labelPosition=center;verticalLabelPosition=middle;align=center;verticalAlign=middle;strokeColor=#009900;strokeWidth=2;fontSize=14;" vertex="1" parent="1">
          <mxGeometry x="220" y="280" width="40" height="40" as="geometry" />
        </mxCell>
        <mxCell id="Hx16BjxcyZ5YLSAibm-R-12" value="P2" style="ellipse;whiteSpace=wrap;html=1;aspect=fixed;labelPosition=center;verticalLabelPosition=middle;align=center;verticalAlign=middle;strokeColor=#009900;strokeWidth=2;fontSize=14;" vertex="1" parent="1">
          <mxGeometry x="340" y="280" width="40" height="40" as="geometry" />
        </mxCell>
        <mxCell id="Hx16BjxcyZ5YLSAibm-R-13" value="P3" style="ellipse;whiteSpace=wrap;html=1;aspect=fixed;labelPosition=center;verticalLabelPosition=middle;align=center;verticalAlign=middle;strokeColor=#009900;strokeWidth=2;fontSize=14;" vertex="1" parent="1">
          <mxGeometry x="460" y="280" width="40" height="40" as="geometry" />
        </mxCell>
        <mxCell id="Hx16BjxcyZ5YLSAibm-R-14" value="&lt;b style=&quot;font-size: 14px;&quot;&gt;PAFH&lt;/b&gt;" style="html=1;aspect=fixed;labelPosition=center;verticalLabelPosition=middle;align=center;verticalAlign=middle;strokeColor=#009900;strokeWidth=2;fontSize=14;" vertex="1" parent="1">
          <mxGeometry x="160" y="280" width="40" height="40" as="geometry" />
        </mxCell>
        <mxCell id="Hx16BjxcyZ5YLSAibm-R-16" value="&lt;b style=&quot;font-size: 14px;&quot;&gt;PIA&lt;/b&gt;" style="whiteSpace=wrap;html=1;aspect=fixed;labelPosition=center;verticalLabelPosition=middle;align=center;verticalAlign=middle;strokeColor=#009900;strokeWidth=2;fontSize=14;" vertex="1" parent="1">
          <mxGeometry x="280" y="280" width="40" height="40" as="geometry" />
        </mxCell>
        <mxCell id="Hx16BjxcyZ5YLSAibm-R-18" value="&lt;b style=&quot;font-size: 14px;&quot;&gt;PT&lt;/b&gt;" style="whiteSpace=wrap;html=1;aspect=fixed;labelPosition=center;verticalLabelPosition=middle;align=center;verticalAlign=middle;strokeColor=#009900;strokeWidth=2;fontSize=14;" vertex="1" parent="1">
          <mxGeometry x="400" y="280" width="40" height="40" as="geometry" />
        </mxCell>
        <mxCell id="Hx16BjxcyZ5YLSAibm-R-19" value="" style="edgeStyle=orthogonalEdgeStyle;rounded=0;orthogonalLoop=1;jettySize=auto;html=1;strokeColor=#009900;strokeWidth=1;labelPosition=center;verticalLabelPosition=middle;align=center;verticalAlign=middle;fontSize=14;" edge="1" parent="1" source="Hx16BjxcyZ5YLSAibm-R-20" target="Hx16BjxcyZ5YLSAibm-R-3">
          <mxGeometry relative="1" as="geometry" />
        </mxCell>
        <mxCell id="Hx16BjxcyZ5YLSAibm-R-20" value="&lt;b style=&quot;font-size: 14px;&quot;&gt;VRT&lt;/b&gt;" style="html=1;aspect=fixed;labelPosition=center;verticalLabelPosition=middle;align=center;verticalAlign=middle;strokeColor=#009900;strokeWidth=2;fontSize=14;" vertex="1" parent="1">
          <mxGeometry x="520" y="280" width="40" height="40" as="geometry" />
        </mxCell>
        <mxCell id="Hx16BjxcyZ5YLSAibm-R-21" style="edgeStyle=orthogonalEdgeStyle;rounded=0;orthogonalLoop=1;jettySize=auto;html=1;entryX=0;entryY=0.5;entryDx=0;entryDy=0;strokeColor=#009900;strokeWidth=1;labelPosition=center;verticalLabelPosition=middle;align=center;verticalAlign=middle;fontSize=14;" edge="1" parent="1" source="Hx16BjxcyZ5YLSAibm-R-22" target="Hx16BjxcyZ5YLSAibm-R-5">
          <mxGeometry relative="1" as="geometry">
            <mxPoint x="910" y="220" as="targetPoint" />
          </mxGeometry>
        </mxCell>
        <mxCell id="Hx16BjxcyZ5YLSAibm-R-22" value="&lt;b style=&quot;font-size: 14px;&quot;&gt;TPB&lt;/b&gt;" style="html=1;aspect=fixed;labelPosition=center;verticalLabelPosition=middle;align=center;verticalAlign=middle;strokeColor=#009900;strokeWidth=2;fontSize=14;" vertex="1" parent="1">
          <mxGeometry x="650" y="280" width="40" height="40" as="geometry" />
        </mxCell>
        <mxCell id="Hx16BjxcyZ5YLSAibm-R-24" value="" style="endArrow=classic;html=1;rounded=0;exitX=1;exitY=0.5;exitDx=0;exitDy=0;entryX=0;entryY=0.5;entryDx=0;entryDy=0;strokeColor=#009900;strokeWidth=1;labelPosition=center;verticalLabelPosition=middle;align=center;verticalAlign=middle;fontSize=14;" edge="1" parent="1" source="Hx16BjxcyZ5YLSAibm-R-14" target="Hx16BjxcyZ5YLSAibm-R-9">
          <mxGeometry width="50" height="50" relative="1" as="geometry">
            <mxPoint x="330" y="360" as="sourcePoint" />
            <mxPoint x="376" y="406" as="targetPoint" />
          </mxGeometry>
        </mxCell>
        <mxCell id="Hx16BjxcyZ5YLSAibm-R-26" value="" style="endArrow=classic;html=1;rounded=0;exitX=1;exitY=0.5;exitDx=0;exitDy=0;entryX=0;entryY=0.5;entryDx=0;entryDy=0;strokeColor=#009900;strokeWidth=1;labelPosition=center;verticalLabelPosition=middle;align=center;verticalAlign=middle;fontSize=14;" edge="1" parent="1" source="Hx16BjxcyZ5YLSAibm-R-16" target="Hx16BjxcyZ5YLSAibm-R-12">
          <mxGeometry width="50" height="50" relative="1" as="geometry">
            <mxPoint x="400" y="270" as="sourcePoint" />
            <mxPoint x="450" y="220" as="targetPoint" />
          </mxGeometry>
        </mxCell>
        <mxCell id="Hx16BjxcyZ5YLSAibm-R-27" value="" style="endArrow=classic;html=1;rounded=0;entryX=0;entryY=0.5;entryDx=0;entryDy=0;exitX=1;exitY=0.5;exitDx=0;exitDy=0;strokeColor=#009900;strokeWidth=1;labelPosition=center;verticalLabelPosition=middle;align=center;verticalAlign=middle;fontSize=14;" edge="1" parent="1" source="Hx16BjxcyZ5YLSAibm-R-12" target="Hx16BjxcyZ5YLSAibm-R-18">
          <mxGeometry width="50" height="50" relative="1" as="geometry">
            <mxPoint x="480" y="290" as="sourcePoint" />
            <mxPoint x="530" y="240" as="targetPoint" />
          </mxGeometry>
        </mxCell>
        <mxCell id="Hx16BjxcyZ5YLSAibm-R-28" value="" style="endArrow=classic;html=1;rounded=0;exitX=1;exitY=0.5;exitDx=0;exitDy=0;strokeColor=#009900;strokeWidth=1;labelPosition=center;verticalLabelPosition=middle;align=center;verticalAlign=middle;fontSize=14;entryX=0;entryY=0.5;entryDx=0;entryDy=0;" edge="1" parent="1" source="Hx16BjxcyZ5YLSAibm-R-18" target="Hx16BjxcyZ5YLSAibm-R-13">
          <mxGeometry width="50" height="50" relative="1" as="geometry">
            <mxPoint x="570" y="350" as="sourcePoint" />
            <mxPoint x="460" y="300" as="targetPoint" />
            <Array as="points" />
          </mxGeometry>
        </mxCell>
        <mxCell id="Hx16BjxcyZ5YLSAibm-R-29" value="" style="endArrow=classic;html=1;rounded=0;exitX=1;exitY=0.5;exitDx=0;exitDy=0;entryX=0;entryY=0.5;entryDx=0;entryDy=0;strokeColor=#009900;strokeWidth=1;labelPosition=center;verticalLabelPosition=middle;align=center;verticalAlign=middle;fontSize=14;" edge="1" parent="1" source="Hx16BjxcyZ5YLSAibm-R-13" target="Hx16BjxcyZ5YLSAibm-R-20">
          <mxGeometry width="50" height="50" relative="1" as="geometry">
            <mxPoint x="670" y="290" as="sourcePoint" />
            <mxPoint x="720" y="240" as="targetPoint" />
          </mxGeometry>
        </mxCell>
        <mxCell id="Hx16BjxcyZ5YLSAibm-R-30" value="" style="endArrow=classic;html=1;rounded=0;exitX=1;exitY=0.5;exitDx=0;exitDy=0;entryX=0;entryY=0.5;entryDx=0;entryDy=0;strokeColor=#009900;strokeWidth=1;labelPosition=center;verticalLabelPosition=middle;align=center;verticalAlign=middle;fontSize=14;" edge="1" parent="1" source="Hx16BjxcyZ5YLSAibm-R-3" target="Hx16BjxcyZ5YLSAibm-R-22">
          <mxGeometry width="50" height="50" relative="1" as="geometry">
            <mxPoint x="730" y="226" as="sourcePoint" />
            <mxPoint x="766" y="190" as="targetPoint" />
          </mxGeometry>
        </mxCell>
      </root>
    </mxGraphModel>
  </diagram>
</mxfile>
